<svg width="174" height="25" viewBox="0 0 174 25" fill="none" xmlns="http://www.w3.org/2000/svg">
<path d="M1.13589 11.0069C8.97681 5.75405 28.3569 -2.2042 54.1813 12.3412C83.7961 29.0215 106.602 17.809 119.377 11.2518C135.354 3.05044 167.112 -1.53988 173.182 10.6511" stroke="#357A56" stroke-linecap="round"/>
<path d="M1.1358 11.0071C8.97672 5.7543 24.9872 3.05182 50.379 10.1843C91.1112 27.8919 106.275 16.0515 121.144 10.2614C137.128 5.96403 163.188 -0.264964 173.182 10.6513" stroke="#357A56" stroke-linecap="round"/>
<path d="M1.1359 11.0071C8.97681 5.75426 24.8185 -5.04016 51.3452 10.6378C88.3563 36.972 107.852 15.5213 122.721 9.73121C125.828 5.90091 162.05 -9.0623 173.079 10.4011" stroke="#357A56" stroke-linecap="round"/>
</svg>
