<svg width="1927" height="452" viewBox="0 0 1927 452" fill="none" xmlns="http://www.w3.org/2000/svg">
<path d="M187 250.862C229.087 259.566 324.61 255.379 370 169" stroke="#15643B" stroke-width="1.1"/>
<path d="M434 186C428.5 191.5 417 205.3 415 216.5" stroke="#195435"/>
<path d="M426 196C424.333 201.5 423 214.6 431 223C441 233.5 435 200.5 426 196Z" fill="#397D5A"/>
<path d="M419.5 201.5C413.667 204.833 400.4 209.5 394 201.5C399.333 197.833 411.9 192.7 419.5 201.5Z" fill="#397D5A"/>
<path d="M415 215.5C406.5 220.667 392.5 234.4 404.5 248C413 240 427 222.3 415 215.5Z" fill="#397D5A"/>
<path d="M1784 384C1778.5 389.5 1767 403.3 1765 414.5" stroke="#195435"/>
<path d="M1815 391C1812.39 397.852 1806.95 415.046 1806 429" stroke="#195435"/>
<path d="M1776 394C1774.33 399.5 1773 412.6 1781 421C1791 431.5 1785 398.5 1776 394Z" fill="#397D5A"/>
<path d="M1769.5 399.5C1763.67 402.833 1750.4 407.5 1744 399.5C1749.33 395.833 1761.9 390.7 1769.5 399.5Z" fill="#397D5A"/>
<path d="M1765 413.5C1756.5 418.667 1742.5 432.4 1754.5 446C1763 438 1777 420.3 1765 413.5Z" fill="#397D5A"/>
<path d="M43.6371 307.457C40.5281 311.516 37.3779 320.866 49.6483 325.797C64.9863 331.961 55.812 308.878 43.6371 307.457Z" fill="#357A56"/>
<path d="M44.0001 308L41.0001 303" stroke="#357A56"/>
<path d="M30.188 302.508L0 334.061V0H1927V391.157C1704.5 420 1632.5 288 1630.15 265.446C1489 322 1360.47 238 1360.47 164.276C1311 251.5 1204.5 221.5 1162.74 164.276C1100.75 213.559 1014.48 184.81 979.097 164.276C860 298 702.038 239.903 651.054 164.276C537.547 284.077 431.688 204.51 392.947 149.751C344.646 205.445 259.114 204.343 222.385 196.83C183.342 306.214 77.9856 312.859 30.188 302.508Z" fill="#144433"/>
<path d="M16.4999 327C13.8333 331.833 8.89994 344 10.4999 354C12.4999 366.5 26.4999 346 16.4999 327Z" fill="#15643B"/>
<path d="M25 323C23.5 325.667 22.1 332.7 28.5 339.5C36.5 348 38.5 328.5 25 323Z" fill="#15643B"/>
<path d="M19 314L22 318.5L25 323M25 323C23.5 325.667 22.1 332.7 28.5 339.5C36.5 348 38.5 328.5 25 323Z" stroke="#357A56" stroke-width="1.1"/>
<path d="M59.2076 308C58.3743 314.167 59.6076 327.4 71.2076 331C85.7076 335.5 77.2075 308 59.2076 308Z" fill="#357A56"/>
<path d="M1813.9 406.513C1819.53 409.386 1829.92 417.75 1826.45 428.221C1822.12 441.309 1811.3 414.367 1813.9 406.513Z" fill="#357A56"/>
<path d="M1810 395C1804.83 396.333 1793.8 402.6 1791 417C1797.33 416.333 1810 411 1810 395Z" fill="#357A56"/>
<path d="M1806.37 427.263C1802.21 430.322 1796.8 439.39 1808.44 451.184C1812.67 448.491 1818.17 439.938 1806.37 427.263Z" fill="#357A56"/>
</svg>
