<svg width="22" height="23" viewBox="0 0 22 23" fill="none" xmlns="http://www.w3.org/2000/svg">
<path d="M7.53458 18.921C7.91288 18.921 8.21955 18.6072 8.21955 18.2202C8.21955 17.8332 7.91288 17.5194 7.53458 17.5194C7.15628 17.5194 6.84961 17.8332 6.84961 18.2202C6.84961 18.6072 7.15628 18.921 7.53458 18.921Z" stroke="white" stroke-width="1.875" stroke-linecap="round" stroke-linejoin="round"/>
<path d="M17.1244 18.921C17.5027 18.921 17.8094 18.6072 17.8094 18.2202C17.8094 17.8332 17.5027 17.5194 17.1244 17.5194C16.7461 17.5194 16.4395 17.8332 16.4395 18.2202C16.4395 18.6072 16.7461 18.921 17.1244 18.921Z" stroke="white" stroke-width="1.875" stroke-linecap="round" stroke-linejoin="round"/>
<path d="M2.05469 3.50391H4.79457L6.84949 15.4171H17.809" stroke="white" stroke-width="1.875" stroke-linecap="round" stroke-linejoin="round"/>
<path d="M6.84943 12.6139H17.5281C17.6073 12.614 17.6841 12.586 17.7454 12.5346C17.8067 12.4833 17.8487 12.4118 17.8642 12.3323L19.0971 6.02535C19.1071 5.9745 19.1059 5.92201 19.0936 5.87169C19.0813 5.82137 19.0583 5.77447 19.0261 5.73437C18.994 5.69427 18.9535 5.66197 18.9077 5.63981C18.8618 5.61764 18.8118 5.60617 18.7611 5.6062H5.47949" stroke="white" stroke-width="1.875" stroke-linecap="round" stroke-linejoin="round"/>
</svg>
