<svg width="211" height="286" viewBox="0 0 211 286" fill="none" xmlns="http://www.w3.org/2000/svg">
<circle cx="123.97" cy="145.095" r="64.5117" transform="rotate(2.22181 123.97 145.095)" stroke="#FFA62F" stroke-width="3"/>
<ellipse cx="98.8063" cy="113.322" rx="9.41469" ry="8.36861" fill="#F3C900"/>
<ellipse cx="116.59" cy="96.5847" rx="6.27646" ry="4.18431" fill="#E76900"/>
<path d="M120.004 145.119C119.531 144.817 119.133 144.511 118.818 144.214C119.217 144.487 119.611 144.79 120.004 145.119C124.184 147.79 134.253 150.137 145.348 142.402C152.792 138.201 166.821 134.207 166.038 147.887C163.39 151.843 154.192 159.183 141.28 157.899C129.361 156.714 124.724 149.07 120.004 145.119Z" fill="#74512D"/>
<path d="M166.253 147.16C152.37 162.198 137.331 158.075 131.547 154.437C124.027 148.373 119.4 143.139 115.351 140.752C107.674 136.225 102.626 137.458 100.312 137.458C78.5631 138.428 80.4527 155.649 84.116 164.139C95.6846 187.182 117.665 199.309 143.116 185.362C163.476 174.205 167.024 155.245 166.253 147.16Z" fill="#4D221F"/>
<path d="M89.7759 200.676H97.6973L102.978 204.297V285.171H91.0962L76.5736 263.444L91.0962 273.1V222.403H69.9724L66.0117 216.368H89.7759V200.676Z" fill="#144433"/>
<path d="M137.305 223.119H106.939V217.839H129.383V215.198C129.824 214.318 131.232 212.558 133.344 212.558C135.457 212.558 136.865 214.318 137.305 215.198V223.119Z" fill="#144433"/>
<path d="M75.2536 174.271L69.9727 167.67H121.462V176.912L105.619 203.316L99.0178 198.035L110.9 174.271H75.2536Z" fill="#144433"/>
<path d="M79.214 10.562H31.6855V13.2025H79.214V10.562Z" fill="#144433"/>
<path d="M87.4287 2.64062L79.2139 9.91274V62.8953C79.8984 63.9341 82.4998 66.0119 87.4287 66.0119C92.3575 66.0119 94.9589 63.9341 95.6435 62.8953V13.0294L97.6972 9.91274L87.4287 2.64062Z" fill="#144433"/>
<path d="M47.5283 58.0901V13.2021H60.7307V58.0901H47.5283Z" fill="#144433"/>
<path d="M15.8428 64.4274V0L31.5887 6.33713V10.5619V64.4274C31.9924 65.8357 31.3464 68.6522 25.5325 68.6522C19.7187 68.6522 16.6503 65.8357 15.8428 64.4274Z" fill="#144433"/>
<path d="M47.5284 31.6855H31.6855V34.326H47.5284V31.6855Z" fill="#144433"/>
<path d="M79.2149 31.6855H63.3721V34.326H79.2149V31.6855Z" fill="#144433"/>
<path d="M47.5284 52.8096H31.6855V55.45H47.5284V52.8096Z" fill="#144433"/>
<path d="M79.2149 52.8096H63.3721V55.45H79.2149V52.8096Z" fill="#144433"/>
<path d="M47.5283 113.123V58.0903H60.7307V113.123C60.7307 114.142 59.5305 116.181 54.7296 116.181C49.9287 116.181 47.9284 114.142 47.5283 113.123Z" fill="#144433"/>
<path d="M97.4259 66.0117L86.025 76.5736H110.9L97.4259 66.0117Z" fill="#144433"/>
<path d="M0 76.5736H86.025M86.025 76.5736L97.4259 66.0117L110.9 76.5736H86.025Z" stroke="#144433"/>
<path d="M0 121.462C19.0114 112.195 29.0452 87.6751 31.6856 76.5737H47.5284V92.5017C45.4161 98.2937 14.9627 114.222 0 121.462Z" fill="#144433"/>
<path d="M29.0454 167.67L19.8037 176.912C26.1408 177.968 32.1259 194.075 34.3263 201.996C36.4387 194.603 31.6858 176.031 29.0454 167.67Z" fill="#144433"/>
<path d="M60.7308 171.631C50.169 175.855 51.9293 194.515 54.1297 203.316C58.3543 181.136 63.8114 177.352 66.0119 178.232L60.7308 171.631Z" fill="#144433"/>
<path d="M69.9726 203.316L63.3714 208.597H75.2536L69.9726 203.316Z" fill="#144433"/>
<path d="M38.287 161.069H48.8489V208.597H56.1102H63.3714L69.9726 203.316L75.2536 208.597H19.8037M54.1297 203.316C51.9293 194.515 50.169 175.855 60.7308 171.631L66.0119 178.232C63.8114 177.352 58.3543 181.136 54.1297 203.316Z" stroke="#144433"/>
<path d="M39.6073 207.277V161.069H48.849V207.277V283.851H38.2871L39.6073 208.597V207.277Z" fill="#144433"/>
<path d="M11.8828 253.485C26.6694 242.923 35.647 220.919 38.2875 211.237L36.9673 236.322C34.8549 243.715 19.3641 250.844 11.8828 253.485Z" fill="#144433"/>
<path d="M163.467 78.9042C160.921 64.457 165.405 36.0099 203.714 37.7991C211.707 50.4183 214.848 76.3062 163.467 78.9042Z" stroke="#99BF58" stroke-width="2"/>
<path d="M51.4893 233.682V217.839L73.9332 249.524L51.4893 233.682Z" fill="#144433"/>
</svg>
