<svg width="81" height="108" viewBox="0 0 81 108" fill="none" xmlns="http://www.w3.org/2000/svg">
<circle cx="47.9504" cy="54.9504" r="23.5" transform="rotate(2.22181 47.9504 54.9504)" stroke="#FFA62F" stroke-width="3"/>
<ellipse cx="38.42" cy="42.9174" rx="3.56554" ry="3.16937" fill="#F3C900"/>
<ellipse cx="45.1549" cy="36.5786" rx="2.37702" ry="1.58468" fill="#E76900"/>
<path d="M46.4486 54.9595C46.2695 54.845 46.1189 54.729 45.9995 54.6168C46.1505 54.7198 46.2997 54.8348 46.4486 54.9595C48.0318 55.9709 51.8448 56.8599 56.0469 53.9302C58.866 52.3394 64.1791 50.8268 63.8825 56.0078C62.8799 57.5058 59.3962 60.2857 54.5061 59.7995C49.9922 59.3507 48.2361 56.4558 46.4486 54.9595Z" fill="#74512D"/>
<path d="M63.9637 55.7325C58.7062 61.4278 53.0106 59.8661 50.82 58.4882C47.9721 56.1917 46.2196 54.2095 44.6862 53.3054C41.7789 51.5913 39.8668 52.058 38.9906 52.058C30.7539 52.4255 31.4695 58.9476 32.8569 62.1627C37.2381 70.8894 45.5625 75.4824 55.2012 70.2004C62.9122 65.9749 64.2558 58.7945 63.9637 55.7325Z" fill="#4D221F"/>
<path d="M35 76H38L40 77.3714V108H35.5L30 99.7714L35.5 103.429V84.2286H27.5L26 81.9429H35V76Z" fill="white"/>
<path d="M53 84.5H41.5V82.5H50V81.5C50.1667 81.1667 50.7 80.5 51.5 80.5C52.3 80.5 52.8333 81.1667 53 81.5V84.5Z" fill="white"/>
<path d="M29.5 66L27.5 63.5H47V67L41 77L38.5 75L43 66H29.5Z" fill="white"/>
<path d="M31 4H13V5H31V4Z" fill="white"/>
<path d="M34.1111 1L31 3.7541V23.8197C31.2593 24.2131 32.2444 25 34.1111 25C35.9778 25 36.963 24.2131 37.2222 23.8197V4.93443L38 3.7541L34.1111 1Z" fill="white"/>
<path d="M19 22V5H24V22H19Z" fill="white"/>
<path d="M7 24.4V0L12.9633 2.4V4V24.4C13.1162 24.9333 12.8715 26 10.6697 26C8.46789 26 7.30581 24.9333 7 24.4Z" fill="white"/>
<path d="M19 12H13V13H19V12Z" fill="white"/>
<path d="M31 12H25V13H31V12Z" fill="white"/>
<path d="M19 20H13V21H19V20Z" fill="white"/>
<path d="M31 20H25V21H31V20Z" fill="white"/>
<path d="M19 42.8421V22H24V42.8421C24 43.2281 23.5455 44 21.7273 44C19.9091 44 19.1515 43.2281 19 42.8421Z" fill="white"/>
<path d="M37.8972 25L33.5794 29H43L37.8972 25Z" fill="white"/>
<path d="M1 29H33.5794M33.5794 29L37.8972 25L43 29H33.5794Z" stroke="white"/>
<path d="M1 46C8.2 42.4903 12 33.2043 13 29H19V35.0323C18.2 37.2258 6.66667 43.2581 1 46Z" fill="white" stroke="white"/>
<path d="M12 63.5L8.5 67C10.9 67.4 13.1667 73.5 14 76.5C14.8 73.7 13 66.6667 12 63.5Z" fill="white"/>
<path d="M24 65C20 66.6 20.6666 73.6667 21.5 77C23.0999 68.6 25.1666 67.1667 26 67.5L24 65Z" fill="white"/>
<path d="M27.5 77L25 79H29.5L27.5 77Z" fill="white"/>
<path d="M15.5 61H19.5V79H22.25H25L27.5 77L29.5 79H8.5M21.5 77C20.6666 73.6667 20 66.6 24 65L26 67.5C25.1666 67.1667 23.0999 68.6 21.5 77Z" stroke="white"/>
<path d="M16 78.5V61H19.5V78.5V107.5H15.5L16 79V78.5Z" fill="white"/>
<path d="M5.5 96C11.1 92 14.5 83.6667 15.5 80L15 89.5C14.2 92.3 8.33333 95 5.5 96Z" fill="white"/>
<path d="M62.9084 29.8827C61.944 24.4112 63.6422 13.6377 78.1505 14.3153C81.1777 19.0945 82.3675 28.8988 62.9084 29.8827Z" stroke="#99BF58" stroke-width="2"/>
<path d="M20.5 88.5V82.5L29 94.5L20.5 88.5Z" fill="white"/>
</svg>
