<svg width="263" height="13" viewBox="0 0 263 13" fill="none" xmlns="http://www.w3.org/2000/svg">
<path d="M262 7.87959C249.972 10.4164 220.371 14.1977 181.565 6.77974C137.063 -1.72701 102.183 3.63771 82.6377 6.77974C58.1921 10.7096 9.90046 12.7203 0.999998 6.63198" stroke="#357A56" stroke-linecap="round"/>
<path d="M262 7.87954C249.972 10.4164 225.616 11.6224 187.278 7.87954C125.937 -1.22801 102.634 4.511 79.9314 7.25573C55.5755 9.25191 15.8842 12.1214 0.999998 6.63193" stroke="#357A56" stroke-linecap="round"/>
<path d="M262 7.87957C249.972 10.4164 226.069 15.6148 186.226 7.63004C130.748 -5.71937 100.228 4.76056 77.5259 7.50529C72.7149 9.3767 17.3877 16.4881 1.15037 6.75672" stroke="#357A56" stroke-linecap="round"/>
</svg>
