<svg width="291" height="11" viewBox="0 0 291 11" fill="none" xmlns="http://www.w3.org/2000/svg">
<path d="M195.405 7.03936C186.446 8.92889 164.398 11.7454 135.493 6.22014C102.346 -0.116071 76.3655 3.87982 61.8076 6.22014C43.5994 9.14727 7.62961 10.645 1.00015 6.11008" stroke="#357A56" stroke-linecap="round"/>
<path d="M195.405 7.03949C186.446 8.92902 168.305 9.82732 139.749 7.03949C94.059 0.255772 76.7015 4.53045 59.7919 6.57485C41.6504 8.06169 12.0866 10.199 1.00015 6.11021" stroke="#357A56" stroke-linecap="round"/>
<path d="M195.405 7.03965C186.446 8.92918 168.642 12.8012 138.965 6.85378C97.6426 -3.08947 74.9098 4.71646 58.0001 6.76087C54.4166 8.15477 13.2064 13.4517 1.11214 6.20329" stroke="#357A56" stroke-linecap="round"/>
<path d="M290 3.41883C281.041 1.5293 258.993 -1.28716 230.088 4.23805C196.941 10.5743 170.961 6.57837 156.403 4.23805C138.195 1.31092 102.225 -0.186764 95.5954 4.34811" stroke="#357A56" stroke-linecap="round"/>
<path d="M290 3.41852C281.041 1.52899 262.9 0.630688 234.344 3.41852C188.654 10.2022 171.297 5.92756 154.387 3.88316C136.246 2.39632 106.682 0.258982 95.5954 4.3478" stroke="#357A56" stroke-linecap="round"/>
<path d="M290 3.40493C281.041 1.5154 263.237 -0.108323 233.56 5.83905C192.238 15.7823 169.858 6.56657 152.948 4.52217C145.5 3.62166 107.69 -2.72618 95.5954 4.52217" stroke="#357A56" stroke-linecap="round"/>
</svg>
