<svg width="1055" height="84" viewBox="0 0 1055 84" fill="none" xmlns="http://www.w3.org/2000/svg">
<path d="M8 55.0002C56.2028 44.8335 174.833 29.6794 330.356 59.408C508.706 93.5002 648.494 72.0002 726.824 59.408C824.793 43.6585 1018.33 35.6002 1054 60.0002" stroke="#144433" stroke-linecap="round"/>
<path d="M8 55C56.2028 44.8334 153.813 40 307.46 55C553.294 91.5 646.687 68.5 737.669 57.5001C835.28 49.5001 994.349 38.0001 1054 60.0001" stroke="#144433" stroke-linecap="round"/>
<path d="M8 55C56.2028 44.8334 152 24.0001 311.677 56.0001C534.013 109.5 656.327 67.5 747.31 56.5C766.591 49.0001 988.324 20.5001 1053.4 59.5001" stroke="#144433" stroke-linecap="round"/>
<path d="M1047 28.5709C998.797 38.7375 880.167 53.8916 724.644 24.163C546.294 -9.92915 406.506 11.5709 328.176 24.163C230.207 39.9125 36.6701 47.9709 1.00005 23.5709" stroke="#144433" stroke-linecap="round"/>
<path d="M1047 28.571C998.797 38.7377 901.187 43.571 747.54 28.571C501.706 -7.92899 408.313 15.071 317.331 26.071C219.72 34.071 60.651 45.571 1.00005 23.571" stroke="#144433" stroke-linecap="round"/>
<path d="M1047 28.571C998.797 38.7377 903 59.571 743.323 27.571C520.987 -25.929 398.673 16.071 307.69 27.071C288.409 34.571 66.6763 63.071 1.60254 24.071" stroke="#144433" stroke-linecap="round"/>
</svg>
