<svg width="19" height="15" viewBox="0 0 19 15" fill="none" xmlns="http://www.w3.org/2000/svg">
<path d="M3.62875 1.00432L14.6488 1.11424C15.2983 1.12072 15.9187 1.36742 16.3737 1.80008C16.8287 2.23273 17.0809 2.8159 17.0749 3.42128L17.018 9.12781C17.0119 9.7332 16.7481 10.3112 16.2846 10.7347C15.8211 11.1582 15.1958 11.3925 14.5463 11.386L7.81185 11.3188L4.11574 13.5648L4.13851 11.2822L3.52629 11.2761C2.8768 11.2696 2.25632 11.0229 1.80133 10.5902C1.34634 10.1576 1.09413 9.57442 1.10017 8.96904L1.15709 3.26251C1.16313 2.65712 1.42693 2.0791 1.89045 1.65561C2.35398 1.23212 2.97926 0.997844 3.62875 1.00432Z" stroke="#144433" stroke-width="2" stroke-linecap="round" stroke-linejoin="round"/>
<path d="M12.7542 6.80258C12.7527 6.95393 12.8158 7.09972 12.9295 7.20788C13.0433 7.31604 13.1984 7.37772 13.3608 7.37934C13.5231 7.38096 13.6795 7.32239 13.7953 7.21652C13.9112 7.11064 13.9772 6.96614 13.9787 6.81479C13.9802 6.66345 13.9171 6.51766 13.8034 6.40949C13.6896 6.30133 13.5345 6.23965 13.3722 6.23803C13.2098 6.23641 13.0535 6.29498 12.9376 6.40086C12.8217 6.50673 12.7557 6.65123 12.7542 6.80258ZM9.0809 6.76594C9.07939 6.91729 9.14244 7.06308 9.25619 7.17124C9.36994 7.2794 9.52506 7.34108 9.68743 7.3427C9.8498 7.34432 10.0061 7.28575 10.122 7.17988C10.2379 7.074 10.3038 6.9295 10.3053 6.77815C10.3069 6.62681 10.2438 6.48102 10.1301 6.37285C10.0163 6.26469 9.86119 6.20301 9.69881 6.20139C9.53644 6.19977 9.38012 6.25834 9.26424 6.36422C9.14836 6.47009 9.08241 6.61459 9.0809 6.76594ZM5.40756 6.7293C5.40605 6.88065 5.4691 7.02644 5.58285 7.1346C5.6966 7.24276 5.85172 7.30444 6.01409 7.30606C6.17646 7.30768 6.33278 7.24911 6.44867 7.14324C6.56455 7.03736 6.6305 6.89286 6.63201 6.74151C6.63352 6.59017 6.57046 6.44437 6.45672 6.33621C6.34297 6.22805 6.18785 6.16637 6.02548 6.16475C5.8631 6.16313 5.70678 6.2217 5.5909 6.32757C5.47502 6.43345 5.40907 6.57795 5.40756 6.7293Z" stroke="#144433" stroke-width="2" stroke-linecap="round" stroke-linejoin="round"/>
</svg>
