<svg width="59" height="62" viewBox="0 0 59 62" fill="none" xmlns="http://www.w3.org/2000/svg">
<path d="M35.7779 4.67028C19.0648 0.709013 13.2261 13.7732 12.4792 20.8694L15.1396 20.8694C17.3752 5.01349 29.8486 4.32431 35.7779 6.3525C43.3634 8.9472 44.7192 18.5201 44.6718 22.9877L47.1017 23.2049C47.9294 12.2507 40.9336 5.89224 35.7779 4.67028Z" fill="#144433"/>
<path d="M11.3506 21.7136C2.81672 21.5635 0.79157 23.0316 0.900278 26.0493C0.948832 29.1316 3.49759 31.6758 4.7659 32.5625C5.60738 32.5625 6.35503 32.1767 6.54194 30.6814C0.983479 24.913 6.09592 24.8463 11.1703 24.6635C14.1844 24.5549 22.2032 24.139 29.3027 24.4686C33.074 24.6438 33.7959 24.6329 38.5134 24.913C43.2546 25.1945 46.3319 25.7057 49.5319 26.1955C50.5772 26.3555 52.3674 26.8929 53.3833 27.7166C55.358 29.3177 53.6834 30.609 51.9617 30.6814C51.401 31.9898 52.3356 33.2982 52.6134 33.5321C56.3698 32.143 62.4951 26.485 52.5642 24.6465C47.7653 23.7581 39.7582 22.7902 31.6262 22.3011C22.9296 21.7781 14.1629 21.7631 11.3506 21.7136Z" fill="#144433"/>
<path d="M7.04979 25.6346C3.76013 25.7842 5.6791 28.5629 7.04979 29.9336C5.55449 25.7468 24.8688 25.3231 34.7129 25.6346C23.3486 24.4384 11.5357 25.1362 7.04979 25.6346Z" fill="#0B241B"/>
<path d="M52.4693 27.8773C55.0113 29.3726 53.1547 29.9957 51.9086 30.1203C53.7029 29.2231 50.6625 27.5035 48.918 26.7559C50.8619 27.0549 52.0955 27.6281 52.4693 27.8773Z" fill="#0B241B"/>
<path d="M21.2884 4.39307C20.2035 5.91377 20.2035 9.29311 22.9798 10.8138C21.6281 8.61724 21.2884 6.58964 21.2884 4.39307Z" fill="#0B241B"/>
<path d="M19.9368 5.06885C18.8519 6.58955 18.8519 9.96889 21.6282 11.4896C20.2765 9.29302 19.9368 7.26542 19.9368 5.06885Z" fill="#0B241B"/>
<path d="M18.5843 6.08301C17.4994 7.60371 17.4994 10.9831 20.2757 12.5038C18.924 10.3072 18.5843 8.27958 18.5843 6.08301Z" fill="#0B241B"/>
<path d="M16.5592 15.038C20.8818 14.2911 31.4283 14.7 38.6939 16.5245C22.9799 15.5449 17.3149 15.6696 16.0523 16.3897L16.5592 15.038Z" fill="#0B241B"/>
<path d="M15.3756 18.6477C18.2481 18.1408 20.6136 17.8029 24.3309 18.6477C19.4308 18.6477 18.0791 19.3236 15.2067 19.8305L15.3756 18.6477Z" fill="#0B241B"/>
<path d="M44.6076 19.7691C40.5524 19.2622 40.0455 19.2622 35.6523 19.6001C40.0455 20.2423 41.1893 20.4786 44.6076 20.9518L44.6076 19.7691Z" fill="#0B241B"/>
<path d="M11.6592 35.1451C9.49644 32.712 11.096 31.0899 12.1661 30.583L13.3489 31.5968C11.0509 32.4079 12.3914 34.3003 13.3489 35.1451C12.2675 41.4983 16.7282 45.4521 19.0938 46.6349C20.6145 47.3952 24.3881 47.4234 25.6835 47.4797C28.9276 49.9128 33.0617 48.4935 34.8077 47.4797C37.2408 48.2908 39.933 46.8038 41.3974 45.959C44.9119 44.2018 46.3538 38.3555 46.6354 35.652C48.7982 34.1651 47.8745 32.7796 47.1423 32.2727L47.8182 31.5968C50.5216 32.9485 48.9446 35.2014 47.8182 36.1589C47.683 43.0528 43.4813 46.5786 41.3974 47.4797C40.4512 48.5611 36.8916 48.8314 34.8077 48.8314C31.2932 50.9942 26.9789 49.7326 25.3455 48.8314C23.8248 48.8314 20.6145 48.4199 18.9248 47.9866C12.3351 46.2969 11.265 38.8624 11.6592 35.1451Z" fill="#837972"/>
<ellipse cx="23.6555" cy="32.4418" rx="2.0276" ry="3.37934" fill="#837972"/>
<ellipse cx="36.4973" cy="32.4418" rx="2.0276" ry="3.37934" fill="#837972"/>
<path d="M38.6937 39.8765C32.8812 43.2558 24.3315 41.4535 21.1211 40.0454L21.459 40.3834C29.0288 44.7089 35.5959 42.1857 38.1868 40.3834L38.6937 39.8765Z" fill="#837972"/>
<circle cx="22.9796" cy="31.0899" r="0.675868" fill="white"/>
<circle cx="35.8214" cy="31.0899" r="0.675868" fill="white"/>
<path d="M40.045 50.0146C35.8546 52.3126 25.4575 51.5354 20.7827 50.8595C18.0793 53.4278 16.9528 58.8009 16.7275 61.1665C19.9717 63.4644 33.6242 56.8297 40.045 53.225C42.8836 51.0622 41.2278 50.1836 40.045 50.0146Z" fill="#BC192C"/>
<path d="M51.028 49.5076C46.7024 47.0745 43.2555 48.4938 42.7486 50.8593C42.3141 52.8869 47.2544 54.5766 49.3383 54.7456C53.3935 55.1511 56.5476 52.6616 57.6177 51.3662C55.9956 51.3662 52.5487 50.1271 51.028 49.5076Z" fill="#BC192C"/>
<path d="M41.5657 51.1973C30.2449 58.8008 20.4448 60.2652 16.8965 59.9836C16.8282 59.9785 16.8117 60.7699 16.7275 61.1663C16.7275 61.4367 18.0793 61.6169 18.7551 61.6732C22.8104 61.8084 33.9622 56.6042 38.8622 53.9007C39.6439 53.6402 41.0588 52.549 41.3967 51.8731C41.6899 51.4894 41.5657 51.3662 41.5657 51.1973Z" fill="#91101F"/>
<path d="M57.6171 51.3662C50.8585 55.6918 44.832 53.0559 42.748 51.1973C42.917 53.3938 47.4791 54.464 49.3378 54.7456C51.2007 54.9526 53.4737 54.3205 54.9137 53.5628C56.2948 52.836 57.2792 51.8731 57.6171 51.3662Z" fill="#91101F"/>
</svg>
